#!OML:ASF F:\VICON\USERDATA\INSTALL\Justin_Nancy\Justin_Nancy.ASF
:FULLY-SPECIFIED
:DEGREES
80
root 0.573423 17.1835 -18.2298 1.1428 -3.65758 -4.80128
lowerback 4.8549 1.77319 3.90993
upperback 0.418927 2.64343 2.96659
thorax -2.25439 1.29197 0.686537
lowerneck -15.7878 -4.17697 -9.40095
upperneck 21.2026 -4.79614 5.94866
head 9.69931 -2.32986 3.01215
rclavicle -7.15625e-015 1.78906e-014
rhumerus -21.2643 -4.62447 -80.4602
rradius 38.713
rwrist 1.87258
rhand -17.2177 14.0651
rfingers 7.12502
rthumb 9.02527 -15.7218
lclavicle -7.15625e-015 1.78906e-014
lhumerus -36.1293 15.0013 84.212
lradius 19.8752
lwrist -16.3983
lhand -10.5517 28.8955
lfingers 7.12502
lthumb 15.4523 58.2979
rfemur 13.013 6.40565 31.5639
rtibia 14.2373
rfoot -14.5716 -7.88345
rtoes -9.07126
lfemur -30.5391 -3.27921 -14.8155
ltibia 23.6252
lfoot -2.0355 6.89239
ltoes -2.74714
81
root 0.588637 17.1719 -18.0571 1.06865 -3.84573 -4.66267
lowerback 4.68201 1.89829 3.82067
upperback 0.568944 2.78564 2.89441
thorax -2.00115 1.36811 0.662164
lowerneck -15.7586 -4.2797 -9.43714
upperneck 20.996 -4.94168 6.01762
head 9.63658 -2.39143 3.02031
rclavicle -1.20762e-014 -3.57812e-015
rhumerus -21.2357 -5.03279 -80.3663
rradius 38.7344
rwrist 1.93862
rhand -16.9917 14.1313
rfingers 7.12502
rthumb 9.24331 -15.6461
lclavicle -1.20762e-014 -3.57812e-015
lhumerus -35.7318 15.2778 84.0861
lradius 19.3415
lwrist -16.7105
lhand -10.9394 28.1407
lfingers 7.12502
lthumb 15.0788 57.5715
rfemur 13.5565 6.4436 31.369
rtibia 14.5706
rfoot -14.1575 -7.79167
rtoes -11.9675
lfemur -30.2388 -3.12738 -15.2284
ltibia 24.3486
lfoot -1.18425 6.52411
ltoes -4.60138
82
root 0.602594 17.1925 -17.8861 1.1764 -4.05794 -4.47968
lowerback 4.57314 2.01674 3.67318
upperback 0.454484 2.93212 2.76155
thorax -2.05622 1.44042 0.600506
lowerneck -15.5372 -4.25477 -9.29416
upperneck 21.0805 -4.96485 6.00053
head 9.62207 -2.39702 2.99094
rclavicle -1.68222e-014 2.38542e-015
rhumerus -21.4959 -5.44906 -80.3879
rradius 38.6771
rwrist 2.13611
rhand -17.0355 13.8414
rfingers 7.12502
rthumb 9.20114 -15.9379
lclavicle -1.68222e-014 2.38542e-015
lhumerus -35.8025 15.4137 83.7896
lradius 19.1126
lwrist -16.8327
lhand -10.8111 28.7121
lfingers 7.12502
lthumb 15.2025 58.1336
rfemur 13.5816 6.52381 31.0761
rtibia 15.266
rfoot -13.7509 -7.40997
rtoes -13.3253
lfemur -30.1458 -3.21941 -15.5314
ltibia 24.8243
lfoot 0.524068 5.96908
ltoes -2.78105
83
root 0.62365 17.2254 -17.697 1.2066 -4.33348 -4.31958
lowerback 4.46084 2.14019 3.65348
upperback 0.316961 3.09283 2.64607
thorax -2.12718 1.51833 0.484776
lowerneck -15.2449 -4.18864 -9.30816
upperneck 21.1142 -4.92218 6.10086
head 9.57819 -2.37273 3.03829
rclavicle -2.09221e-014 1.98785e-014
rhumerus -22.1202 -5.6787 -80.3713
rradius 38.9095
rwrist 2.23721
rhand -17.3132 13.3622
rfingers 7.12502
rthumb 8.93313 -16.4287
lclavicle -2.09221e-014 1.98785e-014
lhumerus -36.0744 15.6707 83.4529
lradius 19.021
lwrist -17.2363
lhand -10.452 29.0714
lfingers 7.12502
lthumb 15.5484 58.4664
rfemur 13.5678 6.62929 30.743
rtibia 16.3589
rfoot -13.5009 -6.78669
rtoes -13.3034
lfemur -29.893 -3.12681 -15.889
ltibia 25.0844
lfoot 2.63656 5.28757
ltoes 2.10811
84
root 0.642768 17.2467 -17.5174 1.17815 -4.54312 -3.98171
lowerback 4.35512 2.26991 3.47838
upperback 0.32863 3.24647 2.45969
thorax -2.05198 1.597 0.386642
lowerneck -15.3909 -4.25653 -9.41309
upperneck 21.3593 -5.03133 6.28501
head 9.70904 -2.41071 3.10759
rclavicle -1.63003e-014 1.47101e-014
rhumerus -22.4115 -6.0498 -80.3596
rradius 38.9538
rwrist 2.2043
rhand -17.4526 12.9128
rfingers 7.12502
rthumb 8.79859 -16.8838
lclavicle -1.63003e-014 1.47101e-014
lhumerus -35.9697 15.9729 83.1861
lradius 18.7732
lwrist -17.76
lhand -11.5785 26.4645
lfingers 7.12502
lthumb 14.4631 55.9404
rfemur 13.3245 6.78428 30.2828
rtibia 17.9642
rfoot -13.1528 -6.4427
rtoes -14.1688
lfemur -29.5044 -2.95881 -16.4527
ltibia 25.094
lfoot 4.28824 4.82878
ltoes 5.74028
85
root 0.656574 17.2685 -17.3377 1.07998 -4.73683 -3.40916
lowerback 4.3111 2.34109 2.91567
upperback 0.272167 3.31047 2.27166
thorax -2.10471 1.63266 0.503021
lowerneck -15.1246 -4.29383 -9.41451
upperneck 21.4683 -5.10622 6.25326
head 9.70349 -2.45464 3.09076
rclavicle -1.58034e-014 -3.1408e-014
rhumerus -22.7137 -6.41282 -80.3914
rradius 38.6343
rwrist 2.15737
rhand -17.5923 12.8938
rfingers 7.12502
rthumb 8.66379 -16.9085
lclavicle -1.58034e-014 -3.1408e-014
lhumerus -36.0973 16.4361 82.8193
lradius 18.5815
lwrist -18.095
lhand -12.5679 24.1169
lfingers 7.12502
lthumb 13.5097 53.6587
rfemur 12.9092 6.87062 29.5417
rtibia 19.9358
rfoot -12.7665 -6.01143
rtoes -14.7402
lfemur -28.9532 -2.41215 -17.3693
ltibia 25.035
lfoot 5.0646 4.5859
ltoes 7.10072
86
root 0.66881 17.2932 -17.1528 0.945651 -4.84549 -2.52537
lowerback 4.30712 2.31858 2.00167
upperback 0.157622 3.23539 2.04327
thorax -2.25807 1.60192 0.778543
lowerneck -14.7857 -4.21233 -9.47016
upperneck 21.5709 -5.007 6.21983
head 9.668 -2.42386 3.10693
rclavicle 3.51103e-014 2.06736e-014
rhumerus -23.1843 -6.74395 -80.4435
rradius 38.2177
rwrist 2.26376
rhand -17.6415 13.2279
rfingers 7.12502
rthumb 8.6163 -16.5763
lclavicle 3.51103e-014 2.06736e-014
lhumerus -36.4334 16.8191 82.4746
lradius 18.591
lwrist -18.0792
lhand -11.8541 26.4586
lfingers 7.12502
lthumb 14.1976 55.9534
rfemur 12.2899 6.78999 28.4137
rtibia 22.2947
rfoot -12.3588 -5.46988
rtoes -15.9198
lfemur -28.2601 -1.95182 -18.6348
ltibia 24.9941
lfoot 4.95606 4.56215
ltoes 6.0277
87
root 0.682846 17.3102 -16.9702 0.826357 -4.74154 -1.79883
lowerback 4.20393 2.27004 1.32183
upperback 0.129949 3.13093 1.83088
thorax -2.25285 1.55633 0.949369
lowerneck -14.7498 -4.17571 -9.55865
upperneck 21.7866 -4.9666 6.30355
head 9.73832 -2.40559 3.16022
rclavicle -2.80783e-015 -1.43125e-014
rhumerus -23.5743 -7.40723 -80.4502
rradius 37.8312
rwrist 2.59638
rhand -17.5732 13.1453
rfingers 7.12502
rthumb 8.68218 -16.6562
lclavicle -2.80783e-015 -1.43125e-014
lhumerus -36.5519 17.3595 82.0702
lradius 18.4774
lwrist -18.4894
lhand -11.3829 27.9562
lfingers 7.12502
lthumb 14.6516 57.4186
rfemur 11.4608 6.51956 27.4446
rtibia 24.9817
rfoot -11.6609 -4.91363
rtoes -16.6826
lfemur -27.5473 -1.38883 -19.7911
ltibia 25.0252
lfoot 4.17198 3.84951
ltoes 4.15855
88
root 0.695971 17.3323 -16.7928 0.701892 -4.64126 -1.38808
lowerback 4.08018 2.23929 1.01238
upperback 0.195838 3.06737 1.66829
thorax -2.12239 1.52767 0.965806
lowerneck -14.8014 -4.17351 -9.60864
upperneck 21.8874 -4.96931 6.38154
head 9.7873 -2.40227 3.19681
rclavicle 1.46107e-014 -3.18055e-015
rhumerus -23.7672 -8.205 -80.4845
rradius 37.3918
rwrist 3.10506
rhand -17.8541 12.6315
rfingers 7.12502
rthumb 8.41114 -17.181
lclavicle 1.46107e-014 -3.18055e-015
lhumerus -36.4478 18.3296 81.4268
lradius 18.066
lwrist -19.6266
lhand -11.5534 27.1397
lfingers 7.12502
lthumb 14.4873 56.614
rfemur 10.4357 6.17644 26.773
rtibia 27.9304
rfoot -10.6048 -4.22775
rtoes -17.2529
lfemur -26.7828 -1.11842 -20.4928
ltibia 25.0664
lfoot 3.32301 3.22091
ltoes 3.99569
89
root 0.705353 17.363 -16.6289 0.54912 -4.44293 -1.09009
lowerback 4.13426 2.08747 0.669771
upperback 0.264079 2.84857 1.65297
thorax -2.09603 1.42182 1.15353
lowerneck -14.9784 -4.09398 -9.69451
upperneck 22.036 -4.8017 6.29043
head 9.85869 -2.34004 3.20186
rclavicle -3.8266e-014 -1.03368e-014
rhumerus -23.8722 -8.45245 -80.501
rradius 36.8514
rwrist 3.2263
rhand -17.9668 12.6438
rfingers 7.12502
rthumb 8.30233 -17.1731
lclavicle -3.8266e-014 -1.03368e-014
lhumerus -36.4265 18.8862 81.2508
lradius 18.0958
lwrist -19.3819
lhand -11.3694 27.3976
lfingers 7.12502
lthumb 14.6646 56.859
rfemur 9.28846 5.64642 26.1821
rtibia 31.0195
rfoot -9.21508 -3.40498
rtoes -17.2295
lfemur -26.0238 -0.858947 -21.0359
ltibia 25.0604
lfoot 2.87081 2.70881
ltoes 4.36846
